<?xml version="1.0" encoding="utf-8"?>
<!-- Generator: Adobe Illustrator 16.0.0, SVG Export Plug-In . SVG Version: 6.00 Build 0)  -->
<!DOCTYPE svg PUBLIC "-//W3C//DTD SVG 1.1//EN" "http://www.w3.org/Graphics/SVG/1.1/DTD/svg11.dtd">
<svg version="1.1" id="Layer_1" xmlns="http://www.w3.org/2000/svg" xmlns:xlink="http://www.w3.org/1999/xlink" x="0px" y="0px"
	 width="291.961px" height="92.978px" viewBox="0 104.022 291.961 92.978" enable-background="new 0 104.022 291.961 92.978"
	 xml:space="preserve">
<g enable-background="new    ">
	<path fill="#FFFFFF" d="M24.691,155.181H16.42v-2.333h8.624l1.697-12.229H18.4v-2.333h8.694l2.191-15.552h2.333l-2.191,15.552
		h11.946l2.191-15.552h2.333l-2.191,15.552h7.775v2.333h-8.129l-1.697,12.229h7.847v2.333h-8.2l-2.262,16.329h-2.333l2.262-16.329
		H27.024l-2.262,16.329h-2.333L24.691,155.181z M39.324,152.848l1.696-12.229H29.074l-1.696,12.229H39.324z"/>
	<path fill="#FFFFFF" d="M84.635,163.734h-0.142c-1.508,2.875-3.393,5.03-5.655,6.468c-2.262,1.437-5.019,2.156-8.271,2.156
		c-2.734,0-5.09-0.52-7.069-1.556c-1.979-1.036-3.605-2.427-4.878-4.171c-1.272-1.742-2.215-3.757-2.827-6.044
		c-0.613-2.285-0.919-4.676-0.919-7.175c0-2.686,0.329-5.195,0.989-7.528c0.66-2.332,1.662-4.347,3.004-6.044
		c1.343-1.696,3.027-3.039,5.054-4.029c2.026-0.989,4.406-1.484,7.14-1.484c1.46,0,2.898,0.201,4.312,0.602s2.722,0.979,3.923,1.731
		c1.202,0.755,2.25,1.696,3.146,2.827c0.895,1.132,1.579,2.404,2.05,3.817h0.142v-22.267h2.686v50.472h-2.686V163.734z
		 M71.134,170.025c2.309,0,4.3-0.471,5.973-1.414c1.672-0.942,3.063-2.191,4.17-3.746c1.107-1.556,1.932-3.334,2.474-5.337
		c0.542-2.003,0.813-4.041,0.813-6.115c0-2.12-0.271-4.182-0.813-6.185c-0.542-2.003-1.355-3.793-2.438-5.373
		c-1.085-1.578-2.486-2.838-4.206-3.781c-1.721-0.942-3.735-1.414-6.044-1.414c-2.403,0-4.453,0.46-6.15,1.379
		c-1.696,0.919-3.099,2.155-4.206,3.711c-1.108,1.555-1.909,3.347-2.403,5.372c-0.495,2.027-0.742,4.124-0.742,6.291
		c0,2.121,0.271,4.184,0.813,6.186c0.541,2.004,1.366,3.782,2.474,5.337c1.106,1.556,2.509,2.792,4.206,3.711
		C66.751,169.565,68.777,170.025,71.134,170.025z"/>
	<path fill="#FFFFFF" d="M95.521,128.319v-7.281h2.686v7.281H95.521z M95.521,171.51v-36.334h2.686v36.334H95.521z"/>
	<path fill="#FFFFFF" d="M107.043,159.422c0.094,1.696,0.471,3.193,1.131,4.489c0.66,1.296,1.52,2.403,2.58,3.322
		c1.061,0.919,2.298,1.614,3.711,2.085c1.414,0.472,2.945,0.707,4.595,0.707c1.177,0,2.439-0.106,3.782-0.318
		c1.343-0.212,2.591-0.601,3.747-1.166c1.154-0.565,2.108-1.354,2.863-2.368c0.753-1.013,1.131-2.298,1.131-3.853
		c0-2.025-0.613-3.558-1.838-4.595c-1.226-1.036-2.769-1.838-4.63-2.403c-1.862-0.565-3.865-1.025-6.008-1.379
		c-2.145-0.354-4.147-0.884-6.009-1.59c-1.862-0.707-3.405-1.708-4.63-3.005c-1.226-1.295-1.838-3.191-1.838-5.69
		c0-1.79,0.399-3.287,1.202-4.488c0.801-1.202,1.826-2.156,3.075-2.863c1.248-0.707,2.651-1.213,4.206-1.52
		c1.555-0.306,3.11-0.46,4.666-0.46c1.884,0,3.651,0.213,5.302,0.637c1.649,0.424,3.075,1.107,4.276,2.05
		c1.202,0.943,2.144,2.145,2.828,3.605c0.683,1.461,1.025,3.229,1.025,5.302h-2.686c0-1.649-0.271-3.063-0.813-4.242
		c-0.542-1.177-1.296-2.131-2.262-2.862c-0.966-0.73-2.109-1.272-3.428-1.626c-1.32-0.354-2.733-0.53-4.241-0.53
		c-1.226,0-2.463,0.118-3.711,0.354c-1.249,0.236-2.368,0.636-3.357,1.202c-0.99,0.565-1.803,1.296-2.439,2.191
		s-0.954,1.979-0.954,3.251c0,1.462,0.354,2.64,1.06,3.534c0.707,0.896,1.637,1.615,2.792,2.156c1.154,0.543,2.45,0.979,3.888,1.308
		c1.437,0.331,2.886,0.661,4.348,0.99c1.79,0.33,3.475,0.719,5.054,1.166c1.578,0.448,2.944,1.061,4.1,1.838
		c1.154,0.777,2.061,1.779,2.722,3.004c0.659,1.227,0.99,2.781,0.99,4.666c0,1.979-0.449,3.605-1.343,4.878
		c-0.896,1.271-2.027,2.297-3.393,3.074c-1.367,0.777-2.887,1.319-4.559,1.626c-1.673,0.306-3.312,0.46-4.913,0.46
		c-2.074,0-3.994-0.272-5.761-0.813s-3.311-1.366-4.63-2.474c-1.32-1.107-2.357-2.462-3.11-4.064
		c-0.754-1.602-1.155-3.464-1.202-5.585H107.043z"/>
	<path fill="#FFFFFF" d="M142.034,143.517h0.212c0.283-0.895,0.753-1.884,1.414-2.969c0.659-1.083,1.53-2.085,2.616-3.004
		c1.083-0.919,2.391-1.685,3.923-2.298c1.53-0.611,3.286-0.919,5.267-0.919c2.779,0,5.195,0.52,7.245,1.556
		c2.05,1.037,3.747,2.428,5.089,4.171c1.344,1.743,2.344,3.771,3.005,6.079c0.659,2.31,0.989,4.736,0.989,7.28
		c0,2.781-0.331,5.326-0.991,7.635c-0.661,2.31-1.666,4.301-3.013,5.974c-1.346,1.673-3.047,2.98-5.102,3.923
		s-4.475,1.414-7.262,1.414c-3.024,0-5.717-0.661-8.078-1.979c-2.361-1.319-4.086-3.464-5.173-6.433h-0.139l-0.002,20.57h-2.616
		v-49.341h2.616V143.517z M155.43,170.025c2.361,0,4.404-0.447,6.129-1.343s3.142-2.097,4.253-3.605
		c1.11-1.508,1.937-3.263,2.48-5.267c0.544-2.002,0.815-4.135,0.815-6.397c0-2.073-0.261-4.11-0.779-6.114
		c-0.521-2.002-1.324-3.793-2.41-5.372c-1.088-1.578-2.492-2.851-4.218-3.817c-1.726-0.966-3.815-1.449-6.271-1.449
		c-2.41,0-4.467,0.472-6.167,1.414c-1.701,0.943-3.084,2.191-4.146,3.746c-1.063,1.556-1.831,3.335-2.304,5.337
		c-0.473,2.004-0.708,4.089-0.708,6.256c0,2.169,0.212,4.254,0.638,6.256c0.424,2.004,1.145,3.771,2.16,5.302
		c1.017,1.532,2.387,2.757,4.111,3.676C150.739,169.565,152.877,170.025,155.43,170.025z"/>
	<path fill="#FFFFFF" d="M175.398,153.343c0-2.591,0.364-5.03,1.096-7.316c0.73-2.285,1.803-4.3,3.217-6.044
		c1.413-1.743,3.156-3.121,5.23-4.135c2.073-1.013,4.453-1.521,7.139-1.521c2.688,0,5.066,0.508,7.141,1.521
		c2.072,1.014,3.816,2.392,5.23,4.135c1.414,1.744,2.485,3.759,3.217,6.044c0.73,2.286,1.096,4.726,1.096,7.316
		c0,2.592-0.365,5.043-1.096,7.352c-0.731,2.31-1.803,4.324-3.217,6.044c-1.414,1.721-3.158,3.087-5.23,4.1
		c-2.074,1.013-4.453,1.521-7.141,1.521c-2.686,0-5.065-0.508-7.139-1.521c-2.074-1.013-3.817-2.379-5.23-4.1
		c-1.414-1.72-2.486-3.734-3.217-6.044C175.763,158.386,175.398,155.935,175.398,153.343z M178.084,153.343
		c0,2.168,0.307,4.254,0.92,6.256c0.611,2.004,1.508,3.782,2.686,5.337c1.178,1.556,2.639,2.792,4.383,3.711
		c1.742,0.919,3.746,1.379,6.008,1.379c2.263,0,4.266-0.46,6.01-1.379c1.742-0.919,3.203-2.155,4.383-3.711
		c1.177-1.555,2.072-3.333,2.686-5.337c0.611-2.002,0.919-4.088,0.919-6.256c0-2.167-0.308-4.252-0.919-6.256
		c-0.613-2.003-1.509-3.782-2.686-5.337c-1.18-1.556-2.641-2.792-4.383-3.711c-1.744-0.919-3.747-1.379-6.01-1.379
		c-2.262,0-4.266,0.46-6.008,1.379c-1.744,0.919-3.205,2.155-4.383,3.711c-1.178,1.555-2.074,3.334-2.686,5.337
		C178.391,149.091,178.084,151.176,178.084,153.343z"/>
	<path fill="#FFFFFF" d="M215.336,159.422c0.094,1.696,0.471,3.193,1.131,4.489s1.521,2.403,2.58,3.322
		c1.061,0.919,2.299,1.614,3.712,2.085c1.413,0.472,2.944,0.707,4.595,0.707c1.178,0,2.439-0.106,3.781-0.318
		c1.344-0.212,2.592-0.601,3.747-1.166c1.154-0.565,2.108-1.354,2.862-2.368c0.754-1.013,1.132-2.298,1.132-3.853
		c0-2.025-0.613-3.558-1.838-4.595c-1.226-1.036-2.769-1.838-4.63-2.403c-1.863-0.565-3.865-1.025-6.009-1.379
		c-2.146-0.354-4.147-0.884-6.009-1.59c-1.862-0.707-3.405-1.708-4.63-3.005c-1.226-1.295-1.838-3.191-1.838-5.69
		c0-1.79,0.399-3.287,1.202-4.488c0.801-1.202,1.825-2.156,3.074-2.863c1.248-0.707,2.65-1.213,4.206-1.52
		c1.556-0.306,3.11-0.46,4.665-0.46c1.885,0,3.652,0.213,5.303,0.637c1.648,0.424,3.074,1.107,4.275,2.05
		c1.202,0.943,2.145,2.145,2.828,3.605c0.683,1.461,1.025,3.229,1.025,5.302h-2.687c0-1.649-0.271-3.063-0.813-4.242
		c-0.542-1.177-1.296-2.131-2.262-2.862c-0.967-0.73-2.109-1.272-3.428-1.626c-1.32-0.354-2.734-0.53-4.242-0.53
		c-1.226,0-2.463,0.118-3.711,0.354c-1.249,0.236-2.367,0.636-3.357,1.202c-0.99,0.565-1.803,1.296-2.439,2.191
		c-0.636,0.896-0.953,1.979-0.953,3.251c0,1.462,0.354,2.64,1.06,3.534c0.707,0.896,1.638,1.615,2.792,2.156
		c1.154,0.543,2.45,0.979,3.889,1.308c1.437,0.331,2.886,0.661,4.348,0.99c1.789,0.33,3.475,0.719,5.054,1.166
		c1.578,0.448,2.944,1.061,4.1,1.838c1.154,0.777,2.062,1.779,2.722,3.004c0.659,1.227,0.99,2.781,0.99,4.666
		c0,1.979-0.449,3.605-1.344,4.878c-0.896,1.271-2.027,2.297-3.393,3.074c-1.367,0.777-2.888,1.319-4.56,1.626
		c-1.673,0.306-3.312,0.46-4.913,0.46c-2.074,0-3.994-0.272-5.762-0.813c-1.767-0.541-3.311-1.366-4.629-2.474
		c-1.32-1.107-2.357-2.462-3.111-4.064c-0.754-1.602-1.154-3.464-1.201-5.585H215.336z"/>
	<path fill="#FFFFFF" d="M248.064,153.696v0.424c0,2.121,0.283,4.147,0.851,6.079c0.566,1.934,1.405,3.63,2.517,5.09
		c1.109,1.461,2.504,2.615,4.182,3.464c1.676,0.849,3.625,1.272,5.847,1.272c3.638,0,6.521-0.954,8.647-2.863
		c2.126-1.908,3.59-4.56,4.395-7.952h2.686c-0.801,4.241-2.533,7.493-5.195,9.755s-6.186,3.394-10.567,3.394
		c-2.687,0-5.031-0.484-7.034-1.449c-2.003-0.966-3.676-2.285-5.019-3.959c-1.343-1.672-2.345-3.651-3.005-5.938
		c-0.66-2.285-0.988-4.747-0.988-7.387c0-2.545,0.341-4.984,1.024-7.316c0.683-2.333,1.708-4.383,3.075-6.15
		c1.365-1.767,3.074-3.181,5.125-4.241c2.05-1.061,4.464-1.591,7.245-1.591c2.545,0,4.795,0.472,6.751,1.414
		c1.955,0.943,3.593,2.227,4.912,3.853s2.321,3.512,3.005,5.655c0.683,2.145,1.024,4.442,1.024,6.892
		c0,0.236-0.012,0.508-0.035,0.813c-0.023,0.307-0.035,0.555-0.035,0.742H248.064z M274.785,151.363
		c-0.096-1.979-0.426-3.853-0.992-5.619c-0.568-1.768-1.406-3.323-2.516-4.666c-1.111-1.343-2.458-2.414-4.041-3.216
		c-1.584-0.801-3.391-1.202-5.422-1.202c-2.174,0-4.088,0.413-5.741,1.237c-1.655,0.825-3.048,1.908-4.182,3.252
		c-1.134,1.343-2.008,2.91-2.622,4.7c-0.614,1.792-0.993,3.63-1.135,5.514H274.785z"/>
</g>
</svg>
